<?xml version="1.0" encoding="UTF-8"?>
<!-- Created with Inkscape (http://www.inkscape.org/) -->
<svg width="50mm" height="50mm" version="1.1" viewBox="0 0 50 50" xmlns="http://www.w3.org/2000/svg" xmlns:cc="http://creativecommons.org/ns#" xmlns:dc="http://purl.org/dc/elements/1.1/" xmlns:rdf="http://www.w3.org/1999/02/22-rdf-syntax-ns#">
 <metadata>
  <rdf:RDF>
   <cc:Work rdf:about="">
    <dc:format>image/svg+xml</dc:format>
    <dc:type rdf:resource="http://purl.org/dc/dcmitype/StillImage"/>
    <dc:title/>
   </cc:Work>
  </rdf:RDF>
 </metadata>
 <g transform="translate(-80 -123.5)">
  <path transform="scale(.26458)" d="m392.39 466.88a94.488 94.488 0 0 0-77.371 47.139 94.488 94.488 0 0 0 34.584 129.07 94.488 94.488 0 0 0 129.07-34.586 94.488 94.488 0 0 0-34.586-129.07 94.488 94.488 0 0 0-51.701-12.555zm-17.785 28.348c0.70518-0.0547 1.3747 0.10208 2.0098 0.46875l53.811 31.066c0.84678 0.48888 1.3999 1.218 1.6602 2.1894 0.26029 0.97139 0.14514 1.8817-0.34375 2.7285l-7.0664 12.238c-0.48888 0.84678-1.218 1.4018-2.1894 1.6621-0.97139 0.26029-1.8817 0.14514-2.7285-0.34374l-35.564-20.533-7.1992 12.471 33.023 19.066c0.84678 0.48889 1.4018 1.22 1.6621 2.1914 0.26029 0.97139 0.14514 1.8798-0.34375 2.7266l-7.0664 12.24c-0.48888 0.84678-1.22 1.3999-2.1914 1.6602-0.9714 0.26029-1.8798 0.14709-2.7266-0.3418l-33.025-19.068-7.4648 12.934 36.488 21.066c0.84678 0.48889 1.3999 1.22 1.6602 2.1914 0.26028 0.9714 0.14514 1.8798-0.34375 2.7266l-7.0664 12.24c-0.48889 0.84678-1.218 1.3999-2.1894 1.6602-0.9714 0.26029-1.8817 0.14514-2.7285-0.34375l-54.732-31.6c-0.84678-0.48888-1.3999-1.218-1.6602-2.1894-0.26029-0.97139-0.1471-1.8817 0.34179-2.7285l43.068-74.594c0.48889-0.84678 1.2181-1.3999 2.1894-1.6602 0.24285-0.0651 0.48174-0.10675 0.7168-0.125zm37.672 101.04c0.70518-0.0547 1.3747 0.10209 2.0098 0.46875l15.127 8.7324c0.84678 0.48889 1.3999 1.22 1.6602 2.1914 0.26029 0.9714 0.14709 1.8798-0.34179 2.7266l-8.7344 15.127c-0.48889 0.84678-1.2181 1.3999-2.1894 1.6602-0.9714 0.26029-1.8817 0.14514-2.7285-0.34375l-15.125-8.7324c-0.84678-0.48889-1.4018-1.22-1.6621-2.1914-0.26028-0.97139-0.14514-1.8798 0.34375-2.7266l8.7324-15.127c0.48889-0.84678 1.22-1.3999 2.1914-1.6602 0.24285-0.0651 0.48174-0.10675 0.7168-0.125z" fill="#fff"/>
 </g>
</svg>
