<?xml version="1.0" encoding="UTF-8" standalone="no"?>
<!-- Created with Inkscape (http://www.inkscape.org/) -->

<svg
   xmlns:dc="http://purl.org/dc/elements/1.1/"
   xmlns:cc="http://creativecommons.org/ns#"
   xmlns:rdf="http://www.w3.org/1999/02/22-rdf-syntax-ns#"
   xmlns:svg="http://www.w3.org/2000/svg"
   xmlns="http://www.w3.org/2000/svg"
   xmlns:sodipodi="http://sodipodi.sourceforge.net/DTD/sodipodi-0.dtd"
   xmlns:inkscape="http://www.inkscape.org/namespaces/inkscape"
   width="49.999973mm"
   height="50.000221mm"
   viewBox="0 0 49.999973 50.000221"
   version="1.1"
   id="svg8"
   inkscape:version="0.92.4 (5da689c313, 2019-01-14)"
   sodipodi:docname="logo.svg">
  <defs
     id="defs2" />
  <sodipodi:namedview
     id="base"
     pagecolor="#ffffff"
     bordercolor="#666666"
     borderopacity="1.0"
     inkscape:pageopacity="0.0"
     inkscape:pageshadow="2"
     inkscape:zoom="2"
     inkscape:cx="182.1396"
     inkscape:cy="114.53984"
     inkscape:document-units="mm"
     inkscape:current-layer="layer1"
     showgrid="false"
     inkscape:window-width="1920"
     inkscape:window-height="1017"
     inkscape:window-x="-8"
     inkscape:window-y="-8"
     inkscape:window-maximized="1" />
  <metadata
     id="metadata5">
    <rdf:RDF>
      <cc:Work
         rdf:about="">
        <dc:format>image/svg+xml</dc:format>
        <dc:type
           rdf:resource="http://purl.org/dc/dcmitype/StillImage" />
        <dc:title></dc:title>
      </cc:Work>
    </rdf:RDF>
  </metadata>
  <g
     inkscape:label="Camada 1"
     inkscape:groupmode="layer"
     id="layer1"
     transform="translate(-79.999886,-123.50005)">
    <path
       style="opacity:1;fill:#ffffff;fill-opacity:1;stroke:none;stroke-width:7.55905533;stroke-miterlimit:4;stroke-dasharray:none;stroke-opacity:1"
       d="m 392.39258,466.87695 a 94.488189,94.488189 0 0 0 -77.3711,47.13867 94.488189,94.488189 0 0 0 34.58399,129.07422 94.488189,94.488189 0 0 0 129.07422,-34.58593 94.488189,94.488189 0 0 0 -34.58594,-129.07227 94.488189,94.488189 0 0 0 -51.70117,-12.55469 z m -17.78516,28.34766 c 0.70518,-0.0547 1.37468,0.10208 2.00977,0.46875 l 53.81054,31.06641 c 0.84678,0.48888 1.39988,1.21805 1.66016,2.18945 0.26029,0.97139 0.14514,1.88173 -0.34375,2.72851 l -7.06641,12.23829 c -0.48888,0.84678 -1.21805,1.40182 -2.18945,1.6621 -0.97139,0.26029 -1.88173,0.14514 -2.72851,-0.34374 l -35.56446,-20.53321 -7.19922,12.47071 33.02344,19.0664 c 0.84678,0.48889 1.40183,1.22001 1.66211,2.19141 0.26029,0.97139 0.14514,1.87978 -0.34375,2.72656 l -7.06641,12.24023 c -0.48888,0.84678 -1.22001,1.39988 -2.1914,1.66016 -0.9714,0.26029 -1.87978,0.14709 -2.72656,-0.3418 l -33.0254,-19.06836 -7.46484,12.9336 36.48828,21.0664 c 0.84678,0.48889 1.39987,1.22001 1.66016,2.19141 0.26028,0.9714 0.14514,1.87978 -0.34375,2.72656 l -7.06641,12.24024 c -0.48889,0.84678 -1.21805,1.39987 -2.18945,1.66015 -0.9714,0.26029 -1.88174,0.14514 -2.72852,-0.34375 l -54.73242,-31.59961 c -0.84678,-0.48888 -1.39987,-1.21805 -1.66015,-2.18945 -0.26029,-0.97139 -0.1471,-1.88173 0.34179,-2.72851 l 43.06836,-74.59375 c 0.48889,-0.84678 1.21806,-1.39988 2.18945,-1.66016 0.24285,-0.0651 0.48174,-0.10675 0.7168,-0.125 z m 37.67188,101.03906 c 0.70518,-0.0547 1.37468,0.10209 2.00976,0.46875 l 15.12696,8.73242 c 0.84678,0.48889 1.39987,1.22001 1.66015,2.19141 0.26029,0.9714 0.14709,1.87978 -0.34179,2.72656 L 422,625.50977 c -0.48889,0.84678 -1.21806,1.39987 -2.18945,1.66015 -0.9714,0.26029 -1.88174,0.14514 -2.72852,-0.34375 l -15.125,-8.73242 c -0.84678,-0.48889 -1.40182,-1.22001 -1.66211,-2.19141 -0.26028,-0.97139 -0.14514,-1.87978 0.34375,-2.72656 l 8.73242,-15.12695 c 0.48889,-0.84678 1.22001,-1.39987 2.19141,-1.66016 0.24285,-0.0651 0.48174,-0.10675 0.7168,-0.125 z"
       transform="scale(0.26458333)"
       id="path815"
       inkscape:connector-curvature="0" />
  </g>
</svg>
